<svg width="30" height="30" viewBox="0 0 30 30" fill="none" xmlns="http://www.w3.org/2000/svg">
<g clip-path="url(#clip0_22_28)">
<path fill-rule="evenodd" clip-rule="evenodd" d="M23.0769 10.4925C23.0769 11.1435 22.5935 11.693 21.9231 11.9005V13.9925C21.9231 17.301 18.8175 19.9925 15 19.9925C11.1825 19.9925 8.07692 17.301 8.07692 13.9925V11.9C7.40654 11.693 6.92308 11.1435 6.92308 10.4925C6.92308 9.66549 7.69962 8.99249 8.65385 8.99249C9.60808 8.99249 10.3846 9.66549 10.3846 10.4925C10.3846 11.1435 9.90115 11.693 9.23077 11.9005V13.9925C9.23077 16.7495 11.8188 18.9925 15 18.9925C18.1812 18.9925 20.7692 16.7495 20.7692 13.9925V11.9C20.0988 11.693 19.6154 11.1435 19.6154 10.4925C19.6154 9.66549 20.3919 8.99249 21.3462 8.99249C22.3004 8.99249 23.0769 9.66549 23.0769 10.4925ZM25.5525 3.84499L28.0137 5.99249H1.96962L4.44635 3.84599C4.55481 3.75249 4.61538 3.62499 4.61538 3.49249C4.61538 3.35949 4.55423 3.23199 4.44577 3.13849L1.97192 1.00049H28.0281L25.5542 3.13849C25.3287 3.33299 25.3281 3.64899 25.5525 3.84499ZM27.1154 29.0005H2.88462C1.93038 29.0005 1.15385 28.324 1.15385 27.4925V6.99249H28.8462V27.4925C28.8462 28.324 28.0696 29.0005 27.1154 29.0005ZM29.4231 4.49249C29.7415 4.49249 30 4.26849 30 3.99249V0.500488C30 0.297988 29.8598 0.115988 29.644 0.0384883C29.5737 0.0129883 29.4992 0.00498828 29.426 0.00498828C29.4167 0.00448828 29.4087 0.000488281 29.3994 0.000488281H0.576923C0.568846 0.000488281 0.5625 0.00398828 0.554423 0.00398828C0.4875 0.00648828 0.420577 0.0154883 0.355962 0.0384883L0.354231 0.0394883C0.350192 0.0409883 0.347308 0.0434883 0.343269 0.0449883C0.284423 0.0674883 0.233077 0.0989883 0.186923 0.135988C0.1725 0.147988 0.160962 0.160988 0.147692 0.173488C0.115385 0.205988 0.0882691 0.240488 0.066346 0.278488C0.0576922 0.294488 0.0478847 0.308988 0.0403847 0.325488C0.0167309 0.380988 0 0.438988 0 0.500488V3.99249C0 4.26849 0.258462 4.49249 0.576923 4.49249C0.895385 4.49249 1.15385 4.26849 1.15385 3.99249V1.70499L3.22212 3.49299L0.169039 6.13849C0.116539 6.18449 0.0738462 6.23949 0.045 6.29999C0.015577 6.36049 0 6.42549 0 6.49249V27.4925C0 28.8755 1.29404 30.0005 2.88462 30.0005H27.1154C28.706 30.0005 30 28.8755 30 27.4925V6.51349C30 6.38099 29.94 6.25449 29.8321 6.16099L29.8079 6.13949L29.8067 6.13849L26.7767 3.49399L28.8462 1.70499V3.99249C28.8462 4.26849 29.1046 4.49249 29.4231 4.49249Z" fill="black"/>
</g>
<defs>
<clipPath id="clip0_22_28">
<rect width="30" height="30" fill="white"/>
</clipPath>
</defs>
</svg>
