<svg width="86" height="92" viewBox="0 0 86 92" fill="none" xmlns="http://www.w3.org/2000/svg">
<mask id="path-1-outside-1_22_12" maskUnits="userSpaceOnUse" x="10.7648" y="48.396" width="20.5218" height="20.1223" fill="black">
<rect fill="white" x="10.7648" y="48.396" width="20.5218" height="20.1223"/>
<path d="M26.7662 60.7068C25.7274 61.5771 25.032 61.7072 24.68 61.0972C24.1688 60.2237 23.6657 59.6045 23.1707 59.2397C23.1368 59.2829 23.0924 59.6105 23.0375 60.2225C22.912 60.8992 22.6749 61.4597 22.3264 61.904L22.1594 62.1168C21.5494 62.8943 20.5314 63.3222 19.1052 63.4006C18.4551 63.3596 17.9013 63.1705 17.444 62.8334C16.6859 62.2746 16.1938 61.4396 15.968 60.3285C15.9064 59.3483 16.0426 58.6453 16.3766 58.2195C17.0823 57.61 17.5541 57.393 17.7922 57.5685C17.8261 57.5253 18.0086 57.6015 18.3398 57.7969C18.4902 57.9077 18.9433 58.4267 19.6992 59.3539L19.9341 59.5271C20.4917 59.9381 20.9598 60.0348 21.3382 59.8171L21.5052 59.6043C21.7473 59.2958 21.789 58.7763 21.6303 58.0458C21.5201 57.6822 21.0601 57.0899 20.2504 56.2691C19.6615 55.835 19.1412 54.9354 18.6894 53.5701C18.5259 52.6316 18.7152 51.8168 19.2574 51.1258C19.6834 50.5828 20.216 50.3765 20.8554 50.5069C21.112 50.6084 21.2966 50.7007 21.4094 50.7839L21.4564 50.8185C22.0892 51.285 22.5098 52.5639 22.7181 54.6553C22.8585 55.7619 23.1856 56.5045 23.6994 56.8832L23.7558 56.9248C24.1881 57.2435 25.0588 57.7343 26.368 58.3974C27.6771 59.0605 27.8099 59.8303 26.7662 60.7068Z"/>
</mask>
<path d="M26.7662 60.7068C25.7274 61.5771 25.032 61.7072 24.68 61.0972C24.1688 60.2237 23.6657 59.6045 23.1707 59.2397C23.1368 59.2829 23.0924 59.6105 23.0375 60.2225C22.912 60.8992 22.6749 61.4597 22.3264 61.904L22.1594 62.1168C21.5494 62.8943 20.5314 63.3222 19.1052 63.4006C18.4551 63.3596 17.9013 63.1705 17.444 62.8334C16.6859 62.2746 16.1938 61.4396 15.968 60.3285C15.9064 59.3483 16.0426 58.6453 16.3766 58.2195C17.0823 57.61 17.5541 57.393 17.7922 57.5685C17.8261 57.5253 18.0086 57.6015 18.3398 57.7969C18.4902 57.9077 18.9433 58.4267 19.6992 59.3539L19.9341 59.5271C20.4917 59.9381 20.9598 60.0348 21.3382 59.8171L21.5052 59.6043C21.7473 59.2958 21.789 58.7763 21.6303 58.0458C21.5201 57.6822 21.0601 57.0899 20.2504 56.2691C19.6615 55.835 19.1412 54.9354 18.6894 53.5701C18.5259 52.6316 18.7152 51.8168 19.2574 51.1258C19.6834 50.5828 20.216 50.3765 20.8554 50.5069C21.112 50.6084 21.2966 50.7007 21.4094 50.7839L21.4564 50.8185C22.0892 51.285 22.5098 52.5639 22.7181 54.6553C22.8585 55.7619 23.1856 56.5045 23.6994 56.8832L23.7558 56.9248C24.1881 57.2435 25.0588 57.7343 26.368 58.3974C27.6771 59.0605 27.8099 59.8303 26.7662 60.7068Z" fill="#FF6B00"/>
<path d="M26.7662 60.7068L27.4206 61.4503L27.4215 61.4495L26.7662 60.7068ZM24.68 61.0972L25.5654 60.6041L25.5624 60.599L24.68 61.0972ZM23.1707 59.2397L23.7903 58.4499L22.9884 57.8588L22.3687 58.6486L23.1707 59.2397ZM23.0375 60.2225L24.0347 60.3833L24.043 60.3386L24.0471 60.2934L23.0375 60.2225ZM19.1052 63.4006L19.0243 64.385L19.0856 64.3889L19.1469 64.3855L19.1052 63.4006ZM15.968 60.3285L14.9564 60.4037L14.9605 60.4696L14.9737 60.5342L15.968 60.3285ZM16.3766 58.2195L15.7105 57.4861L15.6355 57.5509L15.5747 57.6284L16.3766 58.2195ZM17.7922 57.5685L17.1726 58.3583L17.9745 58.9494L18.5942 58.1597L17.7922 57.5685ZM18.3398 57.7969L18.9595 57.0071L18.9186 56.9771L18.8748 56.9512L18.3398 57.7969ZM19.6992 59.3539L18.9016 59.9744L18.9795 60.07L19.0795 60.1437L19.6992 59.3539ZM21.3382 59.8171L21.8439 60.6644L22.0176 60.5645L22.1402 60.4083L21.3382 59.8171ZM21.6303 58.0458L22.622 57.8277L22.6138 57.7901L22.6027 57.7534L21.6303 58.0458ZM20.2504 56.2691L20.9866 55.5803L20.9324 55.5254L20.8701 55.4794L20.2504 56.2691ZM18.6894 53.5701L17.6902 53.7495L17.7022 53.8188L17.7243 53.8855L18.6894 53.5701ZM20.8554 50.5069L21.2491 49.5922L21.1659 49.5593L21.0777 49.5413L20.8554 50.5069ZM22.7181 54.6553L21.7093 54.7654L21.7106 54.7782L21.7122 54.791L22.7181 54.6553ZM26.1119 59.9633C25.8831 60.155 25.6946 60.2876 25.5447 60.3741C25.3909 60.4628 25.3091 60.4847 25.289 60.4885C25.2799 60.4902 25.3522 60.4767 25.4514 60.5222C25.5484 60.5667 25.5771 60.6243 25.5654 60.6041L23.7946 61.5902C23.9589 61.875 24.2065 62.1452 24.5654 62.3097C24.9265 62.4751 25.3036 62.4891 25.6422 62.4258C26.2648 62.3093 26.8697 61.9118 27.4206 61.4503L26.1119 59.9633ZM25.5624 60.599C25.023 59.6773 24.4402 58.929 23.7903 58.4499L22.5511 60.0295C22.8911 60.2801 23.3145 60.7701 23.7975 61.5953L25.5624 60.599ZM22.3687 58.6486C22.245 58.8062 22.1978 58.9656 22.1902 58.9895C22.1716 59.0477 22.159 59.1019 22.1507 59.141C22.1338 59.2215 22.1196 59.3126 22.1073 59.4035C22.0821 59.5891 22.0558 59.8411 22.0279 60.1515L24.0471 60.2934C24.0742 59.9918 24.0975 59.7741 24.1167 59.6321C24.1266 59.5592 24.1333 59.522 24.1359 59.5098C24.1374 59.5026 24.1343 59.5193 24.1248 59.549C24.12 59.5641 24.1098 59.5945 24.0925 59.6331C24.0784 59.6648 24.0417 59.7428 23.9727 59.8308L22.3687 58.6486ZM22.0403 60.0616C21.9369 60.6185 21.7528 61.0217 21.5244 61.3129L23.1283 62.4951C23.597 61.8978 23.887 61.1799 24.0347 60.3833L22.0403 60.0616ZM21.5244 61.3129L21.3574 61.5257L22.9613 62.708L23.1283 62.4951L21.5244 61.3129ZM21.3574 61.5257C20.9988 61.9828 20.324 62.3464 19.0635 62.4157L19.1469 64.3855C20.7387 64.298 22.1001 63.8057 22.9613 62.708L21.3574 61.5257ZM19.1861 62.4162C18.706 62.3859 18.346 62.2518 18.0636 62.0436L16.8243 63.6231C17.4567 64.0893 18.2042 64.3333 19.0243 64.385L19.1861 62.4162ZM18.0636 62.0436C17.5396 61.6574 17.1515 61.0536 16.9622 60.1228L14.9737 60.5342C15.2362 61.8256 15.8321 62.8917 16.8243 63.6231L18.0636 62.0436ZM16.9795 60.2533C16.9217 59.3323 17.0783 58.9385 17.1786 58.8107L15.5747 57.6284C15.0069 58.352 14.8911 59.3642 14.9564 60.4037L16.9795 60.2533ZM17.0428 58.953C17.371 58.6695 17.5783 58.5378 17.6812 58.4904C17.7305 58.4677 17.7017 58.4901 17.6151 58.4952C17.5098 58.5014 17.336 58.4788 17.1726 58.3583L18.4118 56.7788C17.823 56.3447 17.1588 56.5615 16.8383 56.7089C16.4694 56.8786 16.0879 57.1601 15.7105 57.4861L17.0428 58.953ZM18.5942 58.1597C18.4026 58.4038 18.1515 58.4959 17.9894 58.5264C17.8391 58.5546 17.7221 58.5405 17.674 58.5332C17.5771 58.5184 17.5229 58.4923 17.5434 58.5009C17.5687 58.5115 17.6491 58.5507 17.8048 58.6426L18.8748 56.9512C18.6994 56.8477 18.5229 56.7511 18.3656 56.6855C18.2949 56.656 18.168 56.6068 18.0169 56.5838C17.9418 56.5724 17.8024 56.5578 17.6343 56.5894C17.4545 56.6233 17.1903 56.7224 16.9902 56.9774L18.5942 58.1597ZM17.7202 58.5867C17.6832 58.5594 17.689 58.5577 17.7633 58.6353C17.8242 58.6988 17.9076 58.7906 18.016 58.9147C18.232 59.1622 18.5263 59.514 18.9016 59.9744L20.4968 58.7335C20.1161 58.2667 19.806 57.8954 19.5689 57.6238C19.3653 57.3906 19.1397 57.14 18.9595 57.0071L17.7202 58.5867ZM19.0795 60.1437L19.3145 60.3169L20.5537 58.7374L20.3188 58.5642L19.0795 60.1437ZM19.3145 60.3169C19.9739 60.8029 20.9161 61.1981 21.8439 60.6644L20.8326 58.9698C20.8503 58.9597 20.8766 58.9496 20.9053 58.9455C20.9325 58.9416 20.9425 58.9457 20.9282 58.9427C20.8888 58.9346 20.7661 58.8939 20.5537 58.7374L19.3145 60.3169ZM22.1402 60.4083L22.3072 60.1954L20.7033 59.0131L20.5363 59.226L22.1402 60.4083ZM22.3072 60.1954C22.8429 59.5126 22.7897 58.6001 22.622 57.8277L20.6386 58.264C20.706 58.574 20.7185 58.7868 20.7077 58.9214C20.6969 59.055 20.6682 59.0578 20.7033 59.0131L22.3072 60.1954ZM22.6027 57.7534C22.4946 57.397 22.2608 57.0436 22.0145 56.7264C21.7522 56.3887 21.4058 56.0052 20.9866 55.5803L19.5143 56.958C19.9047 57.3539 20.1932 57.6769 20.3908 57.9314C20.4893 58.0582 20.558 58.1588 20.6036 58.2353C20.6515 58.3156 20.6606 58.3472 20.6579 58.3382L22.6027 57.7534ZM20.8701 55.4794C20.5392 55.2355 20.0951 54.5863 19.6545 53.2548L17.7243 53.8855C18.1872 55.2844 18.7838 56.4346 19.6308 57.0589L20.8701 55.4794ZM19.6887 53.3908C19.5668 52.6912 19.7094 52.1629 20.0594 51.7169L18.4554 50.5346C17.721 51.4707 17.485 52.572 17.6902 53.7495L19.6887 53.3908ZM20.0594 51.7169C20.1838 51.5583 20.2809 51.502 20.3385 51.4797C20.3918 51.4591 20.4783 51.441 20.633 51.4726L21.0777 49.5413C20.5932 49.4425 20.0936 49.4623 19.6142 49.648C19.1392 49.8319 18.757 50.1503 18.4554 50.5346L20.0594 51.7169ZM20.4616 51.4217C20.571 51.465 20.6532 51.5017 20.7125 51.5313C20.775 51.5625 20.795 51.5775 20.7898 51.5736L22.029 49.9941C21.809 49.8319 21.5252 49.7014 21.2491 49.5922L20.4616 51.4217ZM20.7898 51.5736L20.8368 51.6083L22.076 50.0288L22.029 49.9941L20.7898 51.5736ZM20.8368 51.6083C20.9094 51.6618 21.0924 51.8683 21.2808 52.4413C21.4608 52.9886 21.6087 53.755 21.7093 54.7654L23.7268 54.5453C23.6191 53.4642 23.4526 52.5454 23.2121 51.8138C22.9799 51.1079 22.6362 50.4416 22.076 50.0288L20.8368 51.6083ZM21.7122 54.791C21.8624 55.9737 22.2372 57.0519 23.0798 57.673L24.319 56.0935C24.1341 55.9571 23.8547 55.5501 23.7239 54.5196L21.7122 54.791ZM23.0798 57.673L23.1362 57.7146L24.3754 56.135L24.319 56.0935L23.0798 57.673ZM23.1362 57.7146C23.6446 58.0893 24.5873 58.6145 25.8894 59.274L26.8465 57.5208C25.5303 56.8542 24.7316 56.3976 24.3754 56.135L23.1362 57.7146ZM25.8894 59.274C26.1602 59.4112 26.317 59.5281 26.4 59.6105C26.4792 59.6893 26.4591 59.7035 26.4499 59.6498C26.4391 59.5872 26.4647 59.5634 26.4378 59.612C26.4037 59.6736 26.3143 59.7934 26.111 59.9641L27.4215 61.4495C28.0203 60.9466 28.6069 60.2104 28.4489 59.2944C28.3001 58.4313 27.5575 57.881 26.8465 57.5208L25.8894 59.274Z" fill="black" mask="url(#path-1-outside-1_22_12)"/>
<mask id="path-3-outside-2_22_12" maskUnits="userSpaceOnUse" x="20.6537" y="40.3403" width="17.3993" height="17.6567" fill="black">
<rect fill="white" x="20.6537" y="40.3403" width="17.3993" height="17.6567"/>
<path d="M28.1327 43.2171C29.2085 42.7157 30.9948 44.5731 33.4915 48.7894L34.0554 49.9504C34.8395 51.688 35.0811 52.628 34.7803 52.7704L34.3834 52.9571C34.2037 53.036 34.0709 52.9915 33.985 52.8235L33.2325 51.2809C32.7259 50.2464 32.2923 49.8136 31.9316 49.9823C31.6906 50.0984 31.8653 51.2308 32.4555 53.3796C32.4788 54.0824 32.3291 54.679 32.0064 55.1692L31.34 55.4743C29.957 56.1229 27.8881 54.2429 25.1334 49.8345L24.5003 48.5511C23.9987 47.5226 23.9251 46.9264 24.2795 46.7625L24.5417 46.6351C24.8599 46.4891 25.827 47.4587 27.4429 49.5438L28.4342 49.8813C29.0358 49.5965 28.7278 47.7383 27.5101 44.3067C27.6243 43.7227 27.8318 43.3595 28.1327 43.2171Z"/>
</mask>
<path d="M28.1327 43.2171C29.2085 42.7157 30.9948 44.5731 33.4915 48.7894L34.0554 49.9504C34.8395 51.688 35.0811 52.628 34.7803 52.7704L34.3834 52.9571C34.2037 53.036 34.0709 52.9915 33.985 52.8235L33.2325 51.2809C32.7259 50.2464 32.2923 49.8136 31.9316 49.9823C31.6906 50.0984 31.8653 51.2308 32.4555 53.3796C32.4788 54.0824 32.3291 54.679 32.0064 55.1692L31.34 55.4743C29.957 56.1229 27.8881 54.2429 25.1334 49.8345L24.5003 48.5511C23.9987 47.5226 23.9251 46.9264 24.2795 46.7625L24.5417 46.6351C24.8599 46.4891 25.827 47.4587 27.4429 49.5438L28.4342 49.8813C29.0358 49.5965 28.7278 47.7383 27.5101 44.3067C27.6243 43.7227 27.8318 43.3595 28.1327 43.2171Z" fill="#FF6B00"/>
<path d="M28.1327 43.2171L27.6995 42.3325L27.6938 42.3352L28.1327 43.2171ZM33.4915 48.7894L34.4129 48.3634L34.3956 48.3279L34.3755 48.2938L33.4915 48.7894ZM34.0554 49.9504L34.9882 49.5489L34.9827 49.5366L34.9768 49.5245L34.0554 49.9504ZM34.7803 52.7704L35.2168 53.6534L35.2192 53.6523L34.7803 52.7704ZM34.3834 52.9571L34.7956 53.8512L34.8078 53.8458L34.8199 53.8401L34.3834 52.9571ZM33.985 52.8235L33.0643 53.2509L33.0683 53.2591L33.0724 53.2671L33.985 52.8235ZM33.2325 51.2809L34.1531 50.8534L34.1525 50.8521L33.2325 51.2809ZM31.9316 49.9823L31.497 49.0983L31.4862 49.1035L31.9316 49.9823ZM32.4555 53.3796L33.4719 53.3371L33.4682 53.2252L33.4386 53.1173L32.4555 53.3796ZM32.0064 55.1692L32.4332 56.0567L32.7025 55.9334L32.8626 55.6902L32.0064 55.1692ZM31.34 55.4743L30.9132 54.5867L30.9045 54.5908L31.34 55.4743ZM25.1334 49.8345L24.2145 50.2657L24.2358 50.3088L24.2613 50.3497L25.1334 49.8345ZM24.5003 48.5511L23.5797 48.9785L23.5815 48.9822L24.5003 48.5511ZM24.2795 46.7625L24.71 47.6484L24.7191 47.6441L24.7282 47.6397L24.2795 46.7625ZM24.5417 46.6351L24.1142 45.7478L24.1036 45.7527L24.093 45.7578L24.5417 46.6351ZM27.4429 49.5438L26.6265 50.1388L26.8085 50.3737L27.0954 50.4714L27.4429 49.5438ZM28.4342 49.8813L28.0867 50.8089L28.488 50.9455L28.873 50.7632L28.4342 49.8813ZM27.5101 44.3067L26.511 44.1346L26.461 44.3902L26.5478 44.635L27.5101 44.3067ZM28.5658 44.1017C28.4621 44.15 28.4346 44.0806 28.6169 44.167C28.8162 44.2614 29.1208 44.4813 29.5309 44.9078C30.3442 45.7535 31.3694 47.194 32.6075 49.2849L34.3755 48.2938C33.1169 46.1685 32.0007 44.5722 31.0277 43.5605C30.5446 43.0582 30.0449 42.6443 29.5286 42.3997C28.9954 42.1471 28.3412 42.0335 27.6995 42.3325L28.5658 44.1017ZM32.5701 49.2153L33.134 50.3764L34.9768 49.5245L34.4129 48.3634L32.5701 49.2153ZM33.1225 50.352C33.5091 51.2087 33.7378 51.8175 33.8376 52.2058C33.8898 52.4087 33.8882 52.4829 33.8887 52.4732C33.8891 52.4655 33.8932 52.3837 33.9472 52.2718C34.009 52.1439 34.1333 51.987 34.3414 51.8885L35.2192 53.6523C35.8154 53.3701 35.9066 52.7941 35.9197 52.5549C35.935 52.2746 35.8804 51.9785 35.8117 51.7114C35.6699 51.1597 35.3857 50.4297 34.9882 49.5489L33.1225 50.352ZM34.3438 51.8874L33.9469 52.074L34.8199 53.8401L35.2168 53.6534L34.3438 51.8874ZM33.9712 52.063C34.0253 52.0392 34.2296 51.9658 34.4919 52.0538C34.7562 52.1424 34.869 52.324 34.8976 52.3799L33.0724 53.2671C33.1869 53.491 33.409 53.7789 33.8062 53.912C34.2013 54.0445 34.5617 53.9539 34.7956 53.8512L33.9712 52.063ZM34.9057 52.3961L34.1531 50.8534L32.3118 51.7083L33.0643 53.2509L34.9057 52.3961ZM34.1525 50.8521C33.8865 50.3089 33.5952 49.8253 33.2617 49.4924C32.945 49.1764 32.2853 48.7296 31.497 49.0983L32.3661 50.8662C32.1984 50.9447 32.0134 50.9444 31.8753 50.8985C31.7703 50.8636 31.7451 50.8206 31.793 50.8683C31.8931 50.9683 32.0719 51.2184 32.3124 51.7096L34.1525 50.8521ZM31.4862 49.1035C31.12 49.2799 30.9654 49.5848 30.9037 49.7515C30.8389 49.9264 30.8198 50.0962 30.8132 50.2206C30.7997 50.4749 30.8292 50.7707 30.876 51.0743C30.9719 51.6959 31.1749 52.5585 31.4725 53.6418L33.4386 53.1173C33.1459 52.0518 32.9665 51.2739 32.8877 50.763C32.8472 50.5004 32.8413 50.3571 32.8443 50.2992C32.846 50.2675 32.8482 50.313 32.8177 50.3954C32.7902 50.4696 32.6829 50.7137 32.3769 50.8611L31.4862 49.1035ZM31.4391 53.422C31.4573 53.97 31.3398 54.3601 31.1502 54.6482L32.8626 55.6902C33.3183 54.9979 33.5003 54.1948 33.4719 53.3371L31.4391 53.422ZM31.5796 54.2816L30.9132 54.5868L31.7667 56.3618L32.4332 56.0567L31.5796 54.2816ZM30.9045 54.5908C30.8497 54.6165 30.4598 54.7468 29.452 53.831C28.5187 52.9829 27.3691 51.5017 26.0054 49.3193L24.2613 50.3497C25.6524 52.5758 26.9146 54.2387 28.0501 55.2706C29.1112 56.2347 30.4473 56.9807 31.7754 56.3578L30.9045 54.5908ZM26.0522 49.4033L25.4192 48.1199L23.5815 48.9822L24.2145 50.2657L26.0522 49.4033ZM25.421 48.1236C25.1827 47.635 25.0957 47.3436 25.0787 47.2053C25.0704 47.1387 25.0891 47.1853 25.0512 47.2879C25.0012 47.4231 24.8837 47.568 24.71 47.6484L23.8491 45.8766C23.0556 46.2436 23.0062 47.0313 23.0591 47.4599C23.1157 47.9178 23.3164 48.4387 23.5797 48.9785L25.421 48.1236ZM24.7282 47.6397L24.9904 47.5123L24.093 45.7578L23.8309 45.8853L24.7282 47.6397ZM24.9692 47.5223C24.7042 47.6438 24.4782 47.5991 24.4015 47.5779C24.324 47.5565 24.2975 47.5329 24.3336 47.556C24.4033 47.6007 24.545 47.7138 24.7698 47.9392C25.2091 48.3797 25.825 49.1046 26.6265 50.1388L28.2592 48.9488C27.4448 47.8979 26.7693 47.0954 26.2416 46.5663C25.9828 46.3069 25.7221 46.0747 25.4705 45.9135C25.3459 45.8337 25.179 45.742 24.9814 45.6873C24.7846 45.6329 24.4588 45.5898 24.1142 45.7478L24.9692 47.5223ZM27.0954 50.4714L28.0867 50.8089L28.7816 48.9537L27.7903 48.6162L27.0954 50.4714ZM28.873 50.7632C29.4979 50.4674 29.6719 49.8633 29.7229 49.4909C29.7788 49.0833 29.7414 48.6075 29.6586 48.1079C29.4905 47.094 29.0861 45.7079 28.4724 43.9784L26.5478 44.635C27.1518 46.3371 27.5103 47.5959 27.6502 48.4402C27.7214 48.8697 27.7243 49.1264 27.7068 49.2544C27.6844 49.4179 27.6712 49.1528 27.9953 48.9994L28.873 50.7632ZM28.5093 44.4787C28.5542 44.249 28.6069 44.1225 28.6403 44.0641C28.6704 44.0114 28.6587 44.0578 28.5715 44.099L27.6938 42.3352C26.9278 42.6978 26.6374 43.4883 26.511 44.1346L28.5093 44.4787Z" fill="black" mask="url(#path-3-outside-2_22_12)"/>
<mask id="path-5-outside-3_22_12" maskUnits="userSpaceOnUse" x="29.0893" y="31.9379" width="21.662" height="19.8589" fill="black">
<rect fill="white" x="29.0893" y="31.9379" width="21.662" height="19.8589"/>
<path d="M40.4284 44.8504C40.4052 45.0243 40.4124 45.1577 40.4502 45.2505C40.2967 46.1756 39.8555 47.2436 39.1265 48.4546C38.9058 48.836 38.7252 49.0535 38.5847 49.1071L37.4758 49.5307C37.0402 49.6146 36.7716 49.5315 36.6699 49.2815L36.548 48.9815C36.497 48.184 36.4309 47.6852 36.3496 47.4852C36.2915 47.3423 36.3508 46.7214 36.5275 45.6224C36.8002 45.1799 36.9991 44.7656 37.124 44.3795C37.2274 44.34 37.2661 44.2881 37.24 44.2238L37.2182 44.1702C36.273 44.3662 35.3684 44.3363 34.5042 44.0804C34.4673 44.0945 34.1635 43.9671 33.593 43.6982C32.7611 43.4795 32.3015 43.2631 32.2144 43.0488L31.879 42.2237C31.836 41.8028 31.9535 41.4196 32.2315 41.0741L34.0945 40.3625C34.9969 40.1664 35.6888 40.1456 36.1701 40.3001C37.0624 40.2893 37.8288 40.5041 38.469 40.9445L38.5221 40.949C38.3964 40.7659 38.2678 40.5757 38.1363 40.3784C37.4694 39.7254 37.1322 39.3054 37.1245 39.1185L36.9546 38.7007C36.4811 36.8845 36.8633 35.9339 38.1012 35.8489C38.1966 35.9363 38.2636 35.9437 38.3024 35.8711C39.0565 35.5831 39.9019 35.7719 40.8386 36.4374C40.9128 36.8299 41.1969 37.9385 41.6911 39.7633C42.0059 37.8276 42.3068 36.5615 42.5938 35.965C42.8853 35.3585 43.2307 34.979 43.6299 34.8266C44.273 34.5809 44.8603 35.1117 45.3917 36.4189L45.4266 36.5046C46.0771 38.1046 45.3968 39.7715 43.3857 41.5051C45.0031 41.8281 46.175 42.1479 46.9016 42.4646C47.5516 42.7609 47.9681 43.1341 48.151 43.5841C48.1743 43.6413 48.1923 43.6963 48.2053 43.7491C48.4468 44.7214 48.1795 45.3558 47.4033 45.6522C46.6196 45.9515 45.4929 45.47 44.0232 44.2076C44.3994 46.0363 44.1513 47.1171 43.2789 47.4503L43.2457 47.463C42.3232 47.7989 41.54 47.343 40.8961 46.0952C40.7393 45.7095 40.5834 45.2946 40.4284 44.8504Z"/>
</mask>
<path d="M40.4284 44.8504C40.4052 45.0243 40.4124 45.1577 40.4502 45.2505C40.2967 46.1756 39.8555 47.2436 39.1265 48.4546C38.9058 48.836 38.7252 49.0535 38.5847 49.1071L37.4758 49.5307C37.0402 49.6146 36.7716 49.5315 36.6699 49.2815L36.548 48.9815C36.497 48.184 36.4309 47.6852 36.3496 47.4852C36.2915 47.3423 36.3508 46.7214 36.5275 45.6224C36.8002 45.1799 36.9991 44.7656 37.124 44.3795C37.2274 44.34 37.2661 44.2881 37.24 44.2238L37.2182 44.1702C36.273 44.3662 35.3684 44.3363 34.5042 44.0804C34.4673 44.0945 34.1635 43.9671 33.593 43.6982C32.7611 43.4795 32.3015 43.2631 32.2144 43.0488L31.879 42.2237C31.836 41.8028 31.9535 41.4196 32.2315 41.0741L34.0945 40.3625C34.9969 40.1664 35.6888 40.1456 36.1701 40.3001C37.0624 40.2893 37.8288 40.5041 38.469 40.9445L38.5221 40.949C38.3964 40.7659 38.2678 40.5757 38.1363 40.3784C37.4694 39.7254 37.1322 39.3054 37.1245 39.1185L36.9546 38.7007C36.4811 36.8845 36.8633 35.9339 38.1012 35.8489C38.1966 35.9363 38.2636 35.9437 38.3024 35.8711C39.0565 35.5831 39.9019 35.7719 40.8386 36.4374C40.9128 36.8299 41.1969 37.9385 41.6911 39.7633C42.0059 37.8276 42.3068 36.5615 42.5938 35.965C42.8853 35.3585 43.2307 34.979 43.6299 34.8266C44.273 34.5809 44.8603 35.1117 45.3917 36.4189L45.4266 36.5046C46.0771 38.1046 45.3968 39.7715 43.3857 41.5051C45.0031 41.8281 46.175 42.1479 46.9016 42.4646C47.5516 42.7609 47.9681 43.1341 48.151 43.5841C48.1743 43.6413 48.1923 43.6963 48.2053 43.7491C48.4468 44.7214 48.1795 45.3558 47.4033 45.6522C46.6196 45.9515 45.4929 45.47 44.0232 44.2076C44.3994 46.0363 44.1513 47.1171 43.2789 47.4503L43.2457 47.463C42.3232 47.7989 41.54 47.343 40.8961 46.0952C40.7393 45.7095 40.5834 45.2946 40.4284 44.8504Z" fill="#FF6B00"/>
<path d="M40.4284 44.8504L41.3918 44.5343L39.4201 44.7264L40.4284 44.8504ZM40.4502 45.2505L41.454 45.4042L41.498 45.1389L41.3964 44.8891L40.4502 45.2505ZM39.1265 48.4546L38.2482 47.9613L38.2439 47.9685L38.2396 47.9758L39.1265 48.4546ZM37.4758 49.5307L37.6723 50.4949L37.7622 50.4776L37.8476 50.445L37.4758 49.5307ZM36.548 48.9815L35.5333 49.0442L35.5431 49.1988L35.6017 49.3429L36.548 48.9815ZM36.5275 45.6224L35.6545 45.1204L35.5533 45.2846L35.5229 45.4734L36.5275 45.6224ZM37.124 44.3795L36.7522 43.4652L36.2992 43.6383L36.1537 44.0878L37.124 44.3795ZM37.2182 44.1702L38.1645 43.8088L37.8496 43.0343L37.0071 43.209L37.2182 44.1702ZM34.5042 44.0804L34.8038 43.1403L34.4637 43.0396L34.1325 43.1661L34.5042 44.0804ZM33.593 43.6982L34.04 42.8142L33.954 42.7737L33.8616 42.7494L33.593 43.6982ZM31.879 42.2237L30.8673 42.3225L30.8812 42.4583L30.9327 42.5852L31.879 42.2237ZM32.2315 41.0741L31.8598 40.1598L31.6008 40.2587L31.4297 40.4713L32.2315 41.0741ZM34.0945 40.3625L33.8736 39.4033L33.7964 39.4201L33.7228 39.4482L34.0945 40.3625ZM36.1701 40.3001L35.8479 41.2332L36.0098 41.2852L36.1805 41.2831L36.1701 40.3001ZM38.469 40.9445L37.8785 41.7461L38.1033 41.9007L38.3783 41.9239L38.469 40.9445ZM38.5221 40.949L38.4313 41.9284L40.5382 42.1066L39.3694 40.404L38.5221 40.949ZM38.1363 40.3784L38.9913 39.8447L38.9344 39.7592L38.8604 39.6868L38.1363 40.3784ZM37.1245 39.1185L38.1404 39.0775L38.1336 38.9116L38.0708 38.7571L37.1245 39.1185ZM36.9546 38.7007L35.9688 38.943L35.9847 39.0038L36.0084 39.0621L36.9546 38.7007ZM38.1012 35.8489L38.8015 35.1348L38.4774 34.8376L38.0314 34.8683L38.1012 35.8489ZM38.3024 35.8711L37.9307 34.9568L37.5752 35.0926L37.3996 35.421L38.3024 35.8711ZM40.8386 36.4374L41.8387 36.2586L41.7662 35.8752L41.4416 35.6446L40.8386 36.4374ZM41.6911 39.7633L40.7076 40.0143L42.6954 39.914L41.6911 39.7633ZM42.5938 35.965L43.5154 36.3782L43.5156 36.3778L42.5938 35.965ZM43.3857 41.5051L42.7101 40.7718L41.2006 42.0731L43.178 42.468L43.3857 41.5051ZM46.9016 42.4646L47.3368 41.5751L47.3289 41.5715L47.3209 41.5681L46.9016 42.4646ZM48.2053 43.7491L47.216 43.9776L47.2167 43.9807L48.2053 43.7491ZM44.0232 44.2076L44.6992 43.4719L42.4348 41.527L43.0261 44.4015L44.0232 44.2076ZM43.2457 47.463L43.6021 48.3831L43.6098 48.3803L43.6174 48.3774L43.2457 47.463ZM40.8961 46.0952L39.9498 46.4567L39.9662 46.497L39.9862 46.5358L40.8961 46.0952ZM39.4201 44.7264C39.3893 44.9574 39.3725 45.2887 39.5039 45.612L41.3964 44.8891C41.413 44.9299 41.4215 44.9634 41.4259 44.9856C41.4304 45.0078 41.4314 45.0224 41.4317 45.0271C41.4321 45.0347 41.4306 45.0194 41.4367 44.9743L39.4201 44.7264ZM39.4464 45.0969C39.3201 45.8584 38.9423 46.8083 38.2482 47.9613L40.0049 48.9479C40.7688 47.6789 41.2734 46.4928 41.454 45.4042L39.4464 45.0969ZM38.2396 47.9758C38.1433 48.1423 38.0742 48.24 38.0333 48.2892C38.0135 48.3131 38.0121 48.3112 38.0298 48.2963C38.0442 48.2841 38.1054 48.2339 38.213 48.1928L38.9565 50.0214C39.2825 49.8969 39.5006 49.6593 39.6177 49.5183C39.7574 49.35 39.8891 49.1482 40.0134 48.9333L38.2396 47.9758ZM38.213 48.1928L37.1041 48.6164L37.8476 50.445L38.9565 50.0214L38.213 48.1928ZM37.2794 48.5665C37.1429 48.5927 37.1613 48.5645 37.2592 48.5948C37.3177 48.6129 37.3958 48.6497 37.4708 48.7171C37.5461 48.7849 37.5916 48.8596 37.6162 48.9201L35.7237 49.6429C35.8879 50.0469 36.2167 50.3381 36.6361 50.4678C37.0026 50.5811 37.3731 50.5525 37.6723 50.4949L37.2794 48.5665ZM37.6162 48.9201L37.4942 48.62L35.6017 49.3429L35.7237 49.6429L37.6162 48.9201ZM37.5627 48.9188C37.5365 48.5094 37.5056 48.1616 37.4686 47.8822C37.4352 47.6306 37.387 47.3479 37.2959 47.1238L35.4033 47.8466C35.3935 47.8225 35.419 47.8892 35.4518 48.1363C35.4809 48.3557 35.5085 48.656 35.5333 49.0442L37.5627 48.9188ZM37.2959 47.1238C37.3375 47.2261 37.3441 47.3018 37.3443 47.3036C37.3458 47.3173 37.3447 47.3145 37.3447 47.2878C37.3448 47.2346 37.3493 47.1423 37.3629 47.0007C37.3896 46.7203 37.4449 46.3137 37.5321 45.7714L35.5229 45.4734C35.4334 46.0301 35.3707 46.4834 35.3382 46.824C35.3221 46.9929 35.3116 47.1513 35.3114 47.289C35.3113 47.3773 35.31 47.6171 35.4033 47.8466L37.2959 47.1238ZM37.4005 46.1244C37.7035 45.6327 37.9401 45.1476 38.0942 44.6713L36.1537 44.0878C36.0581 44.3836 35.8969 44.727 35.6545 45.1204L37.4005 46.1244ZM37.4957 45.2939C37.6184 45.247 37.8678 45.1358 38.055 44.8846C38.2957 44.5616 38.3135 44.1754 38.1863 43.8624L36.2937 44.5852C36.2516 44.4816 36.2181 44.3382 36.2363 44.1697C36.2549 43.9975 36.322 43.8503 36.4062 43.7373C36.5547 43.538 36.733 43.4726 36.7522 43.4652L37.4957 45.2939ZM38.1863 43.8624L38.1645 43.8088L36.272 44.5317L36.2937 44.5852L38.1863 43.8624ZM37.0071 43.209C36.2193 43.3723 35.4911 43.3438 34.8038 43.1403L34.2047 45.0206C35.2456 45.3288 36.3267 45.3601 37.4293 45.1315L37.0071 43.209ZM34.1325 43.1661C34.243 43.1239 34.3388 43.1092 34.3993 43.1032C34.4625 43.097 34.5147 43.0978 34.5497 43.0996C34.6176 43.1031 34.6686 43.1128 34.6909 43.1173C34.7169 43.1227 34.7356 43.1278 34.744 43.1302C34.7533 43.1328 34.7587 43.1346 34.7589 43.1347C34.7595 43.1349 34.7574 43.1342 34.7522 43.1323C34.7471 43.1304 34.74 43.1277 34.7306 43.1241C34.7117 43.1168 34.6867 43.1067 34.655 43.0934C34.5241 43.0385 34.3216 42.947 34.04 42.8142L33.1459 44.5821C33.4348 44.7183 33.6695 44.825 33.8424 44.8975C33.9261 44.9327 34.0139 44.9676 34.094 44.9943C34.1314 45.0067 34.1931 45.0261 34.2648 45.0409C34.3 45.0481 34.362 45.0593 34.4386 45.0632C34.4931 45.066 34.6704 45.0732 34.8759 44.9947L34.1325 43.1661ZM33.8616 42.7494C33.4714 42.6468 33.2182 42.557 33.0712 42.4878C32.9981 42.4533 32.9804 42.4374 32.9928 42.4472C32.9992 42.4522 33.0953 42.5265 33.1607 42.6873L31.2682 43.4102C31.3771 43.6781 31.5633 43.8599 31.7064 43.9726C31.8554 44.0901 32.021 44.1821 32.1776 44.2559C32.4902 44.4031 32.8826 44.5308 33.3244 44.6469L33.8616 42.7494ZM33.1607 42.6873L32.8253 41.8623L30.9327 42.5852L31.2682 43.4102L33.1607 42.6873ZM32.8907 42.125C32.8743 41.9643 32.9097 41.8305 33.0333 41.6768L31.4297 40.4713C30.9973 41.0087 30.7977 41.6413 30.8673 42.3225L32.8907 42.125ZM32.6032 41.9884L34.4662 41.2768L33.7228 39.4482L31.8598 40.1598L32.6032 41.9884ZM34.3154 41.3217C35.1643 41.1372 35.6336 41.1644 35.8479 41.2332L36.4922 39.3669C35.7439 39.1267 34.8295 39.1956 33.8736 39.4033L34.3154 41.3217ZM36.1805 41.2831C36.8879 41.2746 37.4367 41.4421 37.8785 41.7461L39.0594 40.143C38.2208 39.5661 37.237 39.304 36.1596 39.317L36.1805 41.2831ZM38.3783 41.9239L38.4313 41.9284L38.6128 39.9696L38.5597 39.9651L38.3783 41.9239ZM39.3694 40.404C39.2465 40.2249 39.1205 40.0385 38.9913 39.8447L37.2814 40.9121C37.4152 41.113 37.5463 41.3069 37.6747 41.494L39.3694 40.404ZM38.8604 39.6868C38.5381 39.3712 38.3193 39.1347 38.1866 38.9696C38.1197 38.8862 38.0909 38.8409 38.0832 38.8274C38.0799 38.8216 38.0891 38.8364 38.1009 38.8687C38.1116 38.8976 38.136 38.9717 38.1404 39.0775L36.1087 39.1595C36.1201 39.4388 36.2361 39.6634 36.3009 39.7774C36.3795 39.9156 36.4781 40.0512 36.5798 40.1778C36.7844 40.4326 37.0676 40.7326 37.4122 41.07L38.8604 39.6868ZM38.0708 38.7571L37.9009 38.3392L36.0084 39.0621L36.1783 39.48L38.0708 38.7571ZM37.9405 38.4583C37.7178 37.6044 37.7603 37.1623 37.8335 36.9802C37.8596 36.9154 37.8814 36.9019 37.8925 36.8948C37.9135 36.8814 37.9885 36.8422 38.1711 36.8296L38.0314 34.8683C37.595 34.8982 37.158 35.0097 36.7739 35.2552C36.38 35.5069 36.1037 35.8605 35.9387 36.271C35.6297 37.0395 35.7179 37.9807 35.9688 38.943L37.9405 38.4583ZM37.401 36.5631C37.48 36.6356 37.7263 36.855 38.1057 36.8969C38.3349 36.9221 38.5871 36.8785 38.8128 36.7395C39.0216 36.6109 39.1405 36.4423 39.2053 36.3212L37.3996 35.421C37.4449 35.3362 37.5409 35.1939 37.7233 35.0816C37.9225 34.959 38.1446 34.9216 38.3403 34.9432C38.5149 34.9624 38.6369 35.0241 38.6942 35.0575C38.755 35.093 38.7911 35.1252 38.8015 35.1348L37.401 36.5631ZM38.6741 36.7854C38.9737 36.671 39.4465 36.6696 40.2355 37.2301L41.4416 35.6446C40.3572 34.8742 39.1392 34.4952 37.9307 34.9568L38.6741 36.7854ZM39.8385 36.6161C39.9213 37.0542 40.2181 38.2069 40.7076 40.0143L42.6746 39.5123C42.1758 37.6702 41.9042 36.6055 41.8387 36.2586L39.8385 36.6161ZM42.6954 39.914C43.014 37.9549 43.2989 36.8282 43.5154 36.3782L41.6722 35.5518C41.3147 36.2948 40.9978 37.7003 40.6868 39.6126L42.6954 39.914ZM43.5156 36.3778C43.761 35.8671 43.9572 35.7578 44.0016 35.7409L43.2581 33.9123C42.5041 34.2003 42.0096 34.85 41.672 35.5522L43.5156 36.3778ZM44.0016 35.7409C43.9867 35.7466 43.9308 35.7598 43.8629 35.744C43.8056 35.7308 43.805 35.7117 43.8577 35.7594C43.9849 35.8744 44.1974 36.1701 44.4455 36.7803L46.338 36.0574C46.0547 35.3605 45.7077 34.7372 45.2477 34.3214C45.0068 34.1037 44.7055 33.9163 44.3406 33.8318C43.9651 33.7448 43.5946 33.7837 43.2581 33.9123L44.0016 35.7409ZM44.4455 36.7803L44.4803 36.866L46.3728 36.1431L46.338 36.0574L44.4455 36.7803ZM44.4803 36.866C44.8985 37.8946 44.5945 39.1474 42.7101 40.7718L44.0613 42.2384C46.1991 40.3955 47.2556 38.3146 46.3728 36.1431L44.4803 36.866ZM43.178 42.468C44.7827 42.7884 45.8629 43.0911 46.4822 43.361L47.3209 41.5681C46.4872 41.2047 45.2234 40.8678 43.5933 40.5423L43.178 42.468ZM46.4664 43.354C46.9844 43.5902 47.1508 43.8128 47.2048 43.9456L49.0973 43.2227C48.7854 42.4555 48.1188 41.9317 47.3368 41.5751L46.4664 43.354ZM47.2048 43.9456C47.2127 43.965 47.2154 43.9754 47.216 43.9776L49.1946 43.5206C49.1693 43.4171 49.1359 43.3176 49.0973 43.2227L47.2048 43.9456ZM47.2167 43.9807C47.3097 44.355 47.2685 44.528 47.2446 44.5847C47.2346 44.6084 47.2109 44.6694 47.0315 44.7379L47.775 46.5665C48.3718 46.3386 48.8699 45.9342 49.1273 45.3235C49.3707 44.7458 49.3424 44.1155 49.1938 43.5175L47.2167 43.9807ZM47.0315 44.7379C46.9903 44.7537 46.8133 44.8 46.3832 44.6162C45.9556 44.4334 45.3965 44.0708 44.6992 43.4719L43.3472 44.9434C44.1196 45.6068 44.8588 46.1162 45.5579 46.415C46.2545 46.7127 47.0326 46.8501 47.775 46.5665L47.0315 44.7379ZM43.0261 44.4015C43.203 45.2614 43.2062 45.8327 43.1268 46.1787C43.0576 46.4802 42.9568 46.5171 42.9072 46.536L43.6507 48.3646C44.4734 48.0504 44.9329 47.3802 45.1117 46.6008C45.2804 45.8659 45.2196 44.9825 45.0203 44.0138L43.0261 44.4015ZM42.9072 46.536L42.874 46.5487L43.6174 48.3774L43.6507 48.3646L42.9072 46.536ZM42.8893 46.543C42.6935 46.6143 42.5951 46.5903 42.4921 46.5304C42.335 46.4389 42.0873 46.2 41.8059 45.6547L39.9862 46.5358C40.3487 47.2382 40.8146 47.8511 41.4407 48.2156C42.1209 48.6116 42.8753 48.6476 43.6021 48.3831L42.8893 46.543ZM41.8423 45.7338C41.6923 45.3649 41.5421 44.9652 41.3918 44.5343L39.465 45.1664C39.6246 45.624 39.7862 46.0542 39.9498 46.4567L41.8423 45.7338Z" fill="black" mask="url(#path-5-outside-3_22_12)"/>
<mask id="path-7-outside-4_22_12" maskUnits="userSpaceOnUse" x="48.2991" y="30.7399" width="11.2405" height="15.508" fill="black">
<rect fill="white" x="48.2991" y="30.7399" width="11.2405" height="15.508"/>
<path d="M56.3078 32.8495C57.4788 33.0193 57.8895 35.5503 57.5401 40.4423L57.3421 41.7218C56.9967 43.6039 56.6596 44.5221 56.331 44.4765L55.898 44.4152C55.7052 44.3829 55.6213 44.2729 55.6464 44.0854L55.9067 42.3836C56.0796 41.2414 55.9696 40.6421 55.5767 40.5857C55.3123 40.5508 54.8104 41.5932 54.0711 43.713C53.6896 44.3134 53.2263 44.7302 52.6814 44.9634L51.9592 44.8536C50.4517 44.6387 49.8213 41.9342 50.068 36.7401L50.2789 35.3205C50.4524 34.186 50.7317 33.6472 51.1168 33.7042L51.4051 33.7412C51.7502 33.7934 51.9931 35.1335 52.1338 37.7615L52.7569 38.5864C53.4143 38.6777 54.2201 36.9555 55.1746 33.4196C55.6014 32.9939 55.9792 32.8038 56.3078 32.8495Z"/>
</mask>
<path d="M56.3078 32.8495C57.4788 33.0193 57.8895 35.5503 57.5401 40.4423L57.3421 41.7218C56.9967 43.6039 56.6596 44.5221 56.331 44.4765L55.898 44.4152C55.7052 44.3829 55.6213 44.2729 55.6464 44.0854L55.9067 42.3836C56.0796 41.2414 55.9696 40.6421 55.5767 40.5857C55.3123 40.5508 54.8104 41.5932 54.0711 43.713C53.6896 44.3134 53.2263 44.7302 52.6814 44.9634L51.9592 44.8536C50.4517 44.6387 49.8213 41.9342 50.068 36.7401L50.2789 35.3205C50.4524 34.186 50.7317 33.6472 51.1168 33.7042L51.4051 33.7412C51.7502 33.7934 51.9931 35.1335 52.1338 37.7615L52.7569 38.5864C53.4143 38.6777 54.2201 36.9555 55.1746 33.4196C55.6014 32.9939 55.9792 32.8038 56.3078 32.8495Z" fill="#FF6B00"/>
<path d="M56.3078 32.8495L56.4557 31.8727L56.4495 31.8718L56.3078 32.8495ZM57.5401 40.4423L58.5409 40.5907L58.547 40.5515L58.5498 40.512L57.5401 40.4423ZM57.3421 41.7218L58.3384 41.8968L58.3409 41.8835L58.3429 41.8701L57.3421 41.7218ZM56.331 44.4765L56.1867 45.4538L56.1893 45.4541L56.331 44.4765ZM55.898 44.4152L55.7274 45.3884L55.7406 45.3906L55.7537 45.3925L55.898 44.4152ZM55.6464 44.0854L54.6453 43.9387L54.6439 43.9477L54.6427 43.9567L55.6464 44.0854ZM55.9067 42.3836L56.9078 42.5303L56.908 42.5289L55.9067 42.3836ZM55.5767 40.5857L55.7231 39.6086L55.7113 39.6071L55.5767 40.5857ZM54.0711 43.713L54.9315 44.234L54.9923 44.1384L55.0294 44.0319L54.0711 43.713ZM52.6814 44.9634L52.5266 45.9391L52.8185 45.9834L53.0888 45.8677L52.6814 44.9634ZM51.9592 44.8536L52.1141 43.8778L52.1046 43.8765L51.9592 44.8536ZM50.068 36.7401L49.0663 36.5976L49.0592 36.6453L49.0569 36.6935L50.068 36.7401ZM50.2789 35.3205L49.2778 35.1738L49.2772 35.1779L50.2789 35.3205ZM51.1168 33.7042L50.9659 34.6805L50.9759 34.682L50.9858 34.6833L51.1168 33.7042ZM51.4051 33.7412L51.5592 32.7653L51.5477 32.7636L51.5361 32.7621L51.4051 33.7412ZM52.1338 37.7615L51.123 37.8121L51.1388 38.1081L51.3192 38.3469L52.1338 37.7615ZM52.7569 38.5864L51.9423 39.1718L52.1945 39.5057L52.6153 39.5641L52.7569 38.5864ZM55.1746 33.4196L54.4506 32.7287L54.2638 32.9151L54.1957 33.1673L55.1746 33.4196ZM56.1599 33.8262C56.047 33.8099 56.064 33.7368 56.1648 33.9088C56.2749 34.0968 56.4001 34.4475 56.4944 35.0286C56.6814 36.1809 56.7036 37.9466 56.5303 40.3727L58.5498 40.512C58.726 38.046 58.7176 36.1002 58.4938 34.7216C58.3828 34.0372 58.2075 33.4175 57.9222 32.9303C57.6276 32.4272 57.1541 31.974 56.4557 31.8727L56.1599 33.8262ZM56.5392 40.294L56.3412 41.5735L58.3429 41.8701L58.5409 40.5907L56.5392 40.294ZM56.3458 41.5468C56.1754 42.4748 56.0165 43.109 55.8773 43.4883C55.8045 43.6865 55.7609 43.7477 55.7669 43.7399C55.7716 43.7336 55.8216 43.6674 55.9298 43.6035C56.0536 43.5304 56.2453 43.4673 56.4726 43.4988L56.1893 45.4541C56.8407 45.5446 57.2441 45.1129 57.3912 44.9201C57.5636 44.6941 57.6874 44.4167 57.7832 44.1558C57.981 43.6168 58.1633 42.8509 58.3384 41.8968L56.3458 41.5468ZM56.4752 43.4992L56.0423 43.4379L55.7537 45.3925L56.1867 45.4537L56.4752 43.4992ZM56.0686 43.442C56.1267 43.4518 56.3365 43.5022 56.5022 43.7194C56.6692 43.9382 56.6584 44.1518 56.6501 44.2142L54.6427 43.9567C54.6093 44.2065 54.6279 44.5689 54.8787 44.8976C55.1283 45.2247 55.4765 45.3463 55.7274 45.3884L56.0686 43.442ZM56.6475 44.2321L56.9078 42.5303L54.9056 42.2369L54.6453 43.9387L56.6475 44.2321ZM56.908 42.5289C56.9988 41.9291 57.0348 41.3653 56.9502 40.9043C56.8699 40.4667 56.5818 39.732 55.7231 39.6087L55.4303 41.5626C55.2476 41.5364 55.0956 41.4349 55.0081 41.3209C54.9416 41.2342 54.9454 41.1845 54.9575 41.2506C54.983 41.389 54.9875 41.696 54.9054 42.2384L56.908 42.5289ZM55.7113 39.6071C55.3094 39.5541 55.0084 39.7243 54.8626 39.83C54.7096 39.9407 54.5971 40.0722 54.5208 40.1726C54.3647 40.3778 54.2203 40.6413 54.0857 40.9208C53.8103 41.493 53.4856 42.3254 53.1129 43.3941L55.0294 44.0319C55.396 42.9808 55.6918 42.2322 55.9182 41.7619C56.0346 41.5202 56.1115 41.3971 56.147 41.3504C56.1664 41.3248 56.1422 41.3641 56.0702 41.4162C56.0053 41.4632 55.7778 41.6085 55.4421 41.5643L55.7113 39.6071ZM53.2107 43.192C52.9132 43.6601 52.5943 43.9219 52.2741 44.059L53.0888 45.8677C53.8584 45.5384 54.4659 44.9666 54.9315 44.234L53.2107 43.192ZM52.8363 43.9876L52.1141 43.8779L51.8044 45.8293L52.5266 45.9391L52.8363 43.9876ZM52.1046 43.8765C52.0449 43.868 51.6499 43.7634 51.3428 42.446C51.0584 41.2259 50.957 39.3581 51.0791 36.7868L49.0569 36.6935C48.9323 39.3162 49.0228 41.3977 49.3688 42.8821C49.6921 44.2691 50.3661 45.6243 51.8138 45.8307L52.1046 43.8765ZM51.0698 36.8827L51.2806 35.4631L49.2772 35.1779L49.0663 36.5976L51.0698 36.8827ZM51.28 35.4672C51.3624 34.9281 51.457 34.6369 51.5218 34.5119C51.553 34.4518 51.5418 34.5009 51.4521 34.5659C51.3339 34.6516 51.1547 34.7085 50.9659 34.6805L51.2677 32.7279C50.4057 32.6003 49.916 33.2318 49.7152 33.6192C49.5007 34.0329 49.3689 34.5783 49.2778 35.1738L51.28 35.4672ZM50.9858 34.6833L51.2742 34.7203L51.5361 32.7621L51.2477 32.7251L50.9858 34.6833ZM51.251 34.717C50.9638 34.6736 50.8033 34.5124 50.7523 34.4527C50.7008 34.3924 50.6924 34.3581 50.7089 34.3972C50.7408 34.4728 50.7929 34.645 50.8494 34.9564C50.9597 35.5653 51.0532 36.5086 51.123 37.8121L53.1446 37.711C53.0737 36.3864 52.9753 35.3457 52.8428 34.6144C52.7778 34.2558 52.6956 33.9189 52.5806 33.6464C52.5236 33.5115 52.4386 33.3434 52.3072 33.1895C52.1763 33.0363 51.9328 32.8218 51.5592 32.7653L51.251 34.717ZM51.3192 38.3469L51.9423 39.1718L53.5715 38.0011L52.9484 37.1762L51.3192 38.3469ZM52.6153 39.5641C53.298 39.6589 53.7855 39.249 54.0397 38.9657C54.3181 38.6554 54.5585 38.2371 54.7752 37.774C55.2149 36.8343 55.6724 35.454 56.1534 33.672L54.1957 33.1673C53.7223 34.921 53.2997 36.1698 52.9335 36.9524C52.7472 37.3505 52.6033 37.5666 52.5158 37.6641C52.4043 37.7885 52.5446 37.5596 52.8986 37.6088L52.6153 39.5641ZM55.8985 34.1105C56.0664 33.943 56.1818 33.8661 56.2426 33.8355C56.2974 33.808 56.2614 33.8403 56.1662 33.8271L56.4495 31.8718C55.6126 31.7556 54.9231 32.2575 54.4506 32.7287L55.8985 34.1105Z" fill="black" mask="url(#path-7-outside-4_22_12)"/>
<mask id="path-9-outside-5_22_12" maskUnits="userSpaceOnUse" x="57.196" y="30.5129" width="14.5073" height="16.6182" fill="black">
<rect fill="white" x="57.196" y="30.5129" width="14.5073" height="16.6182"/>
<path d="M63.2771 32.3361C64.0698 32.4667 64.6861 33.0551 65.1262 34.1012C64.9802 34.4776 64.6312 35.578 64.0791 37.4027C65.3761 35.8893 66.3051 34.9472 66.8659 34.5765C67.4358 34.1994 67.9306 34.0454 68.3502 34.1146C69.0263 34.2261 69.2418 34.98 68.9967 36.3763L68.9807 36.4679C68.6807 38.1771 67.2168 39.2743 64.589 39.7596C65.7885 40.8524 66.612 41.7184 67.0595 42.3574C67.453 42.9405 67.6075 43.4723 67.5231 43.9531C67.5124 44.0141 67.4985 44.0707 67.4813 44.1228C67.1687 45.0841 66.6044 45.4974 65.7885 45.3629C64.9648 45.2271 64.2657 44.2443 63.6913 42.4145C63.0371 44.183 62.2515 44.9917 61.3345 44.8405L61.2996 44.8347C60.3386 44.6606 59.9172 43.8727 60.0352 42.4712C60.1932 41.5708 60.4212 40.5681 60.719 39.4631C60.79 39.0587 60.7962 37.9527 60.7376 36.1452C60.5197 35.2456 60.4572 34.7132 60.5502 34.548L60.6285 34.1016C61.1935 32.2948 62.0234 31.6661 63.1183 32.2157C63.1527 32.3391 63.2056 32.3792 63.2771 32.3361Z"/>
</mask>
<path d="M63.2771 32.3361C64.0698 32.4667 64.6861 33.0551 65.1262 34.1012C64.9802 34.4776 64.6312 35.578 64.0791 37.4027C65.3761 35.8893 66.3051 34.9472 66.8659 34.5765C67.4358 34.1994 67.9306 34.0454 68.3502 34.1146C69.0263 34.2261 69.2418 34.98 68.9967 36.3763L68.9807 36.4679C68.6807 38.1771 67.2168 39.2743 64.589 39.7596C65.7885 40.8524 66.612 41.7184 67.0595 42.3574C67.453 42.9405 67.6075 43.4723 67.5231 43.9531C67.5124 44.0141 67.4985 44.0707 67.4813 44.1228C67.1687 45.0841 66.6044 45.4974 65.7885 45.3629C64.9648 45.2271 64.2657 44.2443 63.6913 42.4145C63.0371 44.183 62.2515 44.9917 61.3345 44.8405L61.2996 44.8347C60.3386 44.6606 59.9172 43.8727 60.0352 42.4712C60.1932 41.5708 60.4212 40.5681 60.719 39.4631C60.79 39.0587 60.7962 37.9527 60.7376 36.1452C60.5197 35.2456 60.4572 34.7132 60.5502 34.548L60.6285 34.1016C61.1935 32.2948 62.0234 31.6661 63.1183 32.2157C63.1527 32.3391 63.2056 32.3792 63.2771 32.3361Z" fill="#FF6B00"/>
<path d="M63.2771 32.3361L63.4485 31.3594L63.0748 31.2978L62.7511 31.493L63.2771 32.3361ZM65.1262 34.1012L66.0693 34.4501L66.2119 34.0825L66.0594 33.72L65.1262 34.1012ZM64.0791 37.4027L63.1116 37.1246L64.8504 38.0382L64.0791 37.4027ZM66.8659 34.5765L67.4274 35.3971L67.4277 35.3968L66.8659 34.5765ZM64.589 39.7596L64.4064 38.7864L62.434 39.1507L63.9005 40.4867L64.589 39.7596ZM67.0595 42.3574L67.9019 41.8083L67.8971 41.8012L67.8922 41.7942L67.0595 42.3574ZM67.4813 44.1228L66.5209 43.8223L66.5199 43.8254L67.4813 44.1228ZM63.6913 42.4145L64.656 42.1192L63.771 39.3001L62.7427 42.0801L63.6913 42.4145ZM61.2996 44.8347L61.1121 45.8086L61.1201 45.8101L61.1282 45.8114L61.2996 44.8347ZM60.0352 42.4712L59.0405 42.3071L59.033 42.3502L59.0293 42.3938L60.0352 42.4712ZM60.719 39.4631L61.6948 39.7125L61.7062 39.6702L61.7137 39.6271L60.719 39.4631ZM60.7376 36.1452L61.7465 36.1094L61.7432 36.0095L61.7197 35.9122L60.7376 36.1452ZM60.5502 34.548L61.4333 35.0237L61.5159 34.877L61.5448 34.712L60.5502 34.548ZM60.6285 34.1016L59.6637 33.8148L59.6447 33.8753L59.6338 33.9376L60.6285 34.1016ZM63.1183 32.2157L64.0922 31.9513L63.9755 31.5315L63.581 31.3336L63.1183 32.2157ZM63.1057 33.3127C63.4206 33.3647 63.8223 33.6013 64.193 34.4824L66.0594 33.72C65.55 32.509 64.7189 31.5688 63.4485 31.3594L63.1057 33.3127ZM64.1831 33.7524C64.0201 34.1724 63.6584 35.3173 63.1116 37.1246L65.0466 37.6808C65.6039 35.8388 65.9403 34.7827 66.0693 34.4501L64.1831 33.7524ZM64.8504 38.0382C66.1631 36.5065 67.0043 35.6768 67.4274 35.3971L66.3043 33.7559C65.6058 34.2177 64.5891 35.2721 63.3077 36.7672L64.8504 38.0382ZM67.4277 35.3968C67.9077 35.0793 68.1322 35.0836 68.1788 35.0913L68.5216 33.1379C67.729 33.0073 66.9639 33.3195 66.304 33.7561L67.4277 35.3968ZM68.1788 35.0913C68.1631 35.0887 68.1087 35.072 68.0595 35.0242C68.018 34.9839 68.0276 34.9672 68.047 35.0349C68.0936 35.1982 68.1164 35.5605 68.002 36.2123L69.9914 36.5403C70.1221 35.7958 70.1596 35.083 69.9908 34.4924C69.9024 34.1832 69.7467 33.8698 69.4823 33.6131C69.2102 33.349 68.8753 33.1963 68.5216 33.1379L68.1788 35.0913ZM68.002 36.2123L67.986 36.3039L69.9753 36.6319L69.9914 36.5403L68.002 36.2123ZM67.986 36.3039C67.7931 37.4027 66.8687 38.3317 64.4064 38.7864L64.7716 40.7329C67.565 40.217 69.5683 38.9515 69.9753 36.6319L67.986 36.3039ZM63.9005 40.4867C65.0906 41.5709 65.8454 42.3759 66.2269 42.9207L67.8922 41.7942C67.3786 41.0608 66.4863 40.1339 65.2774 39.0326L63.9005 40.4867ZM66.2172 42.9066C66.5307 43.3713 66.5533 43.6472 66.5284 43.789L68.5178 44.1171C68.6616 43.2975 68.3752 42.5097 67.9019 41.8083L66.2172 42.9066ZM66.5284 43.789C66.5248 43.8098 66.5216 43.8202 66.5209 43.8223L68.4418 44.4233C68.4754 44.3211 68.5 44.2184 68.5178 44.1171L66.5284 43.789ZM66.5199 43.8254C66.3995 44.1955 66.2725 44.3241 66.2221 44.3611C66.201 44.3765 66.1484 44.4173 65.9599 44.3862L65.6171 46.3396C66.2445 46.443 66.882 46.3444 67.4253 45.9464C67.9391 45.5701 68.2505 45.0114 68.4428 44.4202L66.5199 43.8254ZM65.9599 44.3862C65.9165 44.379 65.7418 44.33 65.4749 43.9548C65.2096 43.5818 64.9285 42.9873 64.656 42.1192L62.7265 42.7097C63.0284 43.6714 63.3841 44.4832 63.8179 45.093C64.2501 45.7007 64.8368 46.2109 65.6171 46.3396L65.9599 44.3862ZM62.7427 42.0801C62.435 42.9118 62.1337 43.4068 61.8822 43.6657C61.6631 43.8913 61.558 43.8724 61.5059 43.8638L61.1631 45.8172C62.028 45.9598 62.7742 45.6121 63.3406 45.0291C63.8748 44.4792 64.2934 43.6856 64.6399 42.7488L62.7427 42.0801ZM61.5059 43.8638L61.471 43.8581L61.1282 45.8114L61.1631 45.8172L61.5059 43.8638ZM61.487 43.8608C61.2831 43.8239 61.2124 43.7537 61.1569 43.6501C61.0724 43.4921 60.9896 43.161 61.0411 42.5485L59.0293 42.3938C58.9629 43.1829 59.0317 43.9466 59.3686 44.5764C59.7346 45.2607 60.3551 45.6715 61.1121 45.8086L61.487 43.8608ZM61.0299 42.6352C61.1818 41.7695 61.4027 40.7959 61.6948 39.7125L59.7433 39.2137C59.4397 40.3402 59.2047 41.372 59.0405 42.3071L61.0299 42.6352ZM61.7137 39.6271C61.7654 39.3329 61.7832 38.8772 61.7862 38.3315C61.7894 37.761 61.7759 37.0189 61.7465 36.1094L59.7288 36.1809C59.7579 37.079 59.7706 37.7936 59.7676 38.3291C59.7645 38.8894 59.7437 39.1889 59.7244 39.2991L61.7137 39.6271ZM61.7197 35.9122C61.6143 35.4775 61.5546 35.1631 61.53 34.9537C61.5176 34.848 61.5173 34.7944 61.518 34.7789C61.5183 34.7722 61.5182 34.7897 61.511 34.8235C61.5046 34.8538 61.486 34.9301 61.4333 35.0237L59.667 34.0722C59.5281 34.3191 59.5069 34.5715 59.5012 34.7025C59.4942 34.8614 59.5057 35.0281 59.5246 35.1886C59.5625 35.5117 59.643 35.9133 59.7556 36.3781L61.7197 35.9122ZM61.5448 34.712L61.6232 34.2656L59.6338 33.9376L59.5555 34.384L61.5448 34.712ZM61.5933 34.3884C61.859 33.5388 62.1303 33.1784 62.2893 33.058C62.3459 33.0151 62.3715 33.0144 62.3848 33.0139C62.4097 33.0129 62.4942 33.0167 62.6557 33.0978L63.581 31.3336C63.195 31.1398 62.7652 31.0162 62.3089 31.0349C61.8409 31.0542 61.4185 31.2205 61.06 31.492C60.3891 32.0002 59.963 32.8575 59.6637 33.8148L61.5933 34.3884ZM62.1445 32.4801C62.173 32.5825 62.265 32.8959 62.5644 33.1229C62.7454 33.2601 62.9824 33.3493 63.2477 33.3429C63.4932 33.3369 63.6838 33.2511 63.8031 33.1791L62.7511 31.493C62.8347 31.4426 62.9918 31.368 63.2062 31.3628C63.4404 31.3571 63.6486 31.4366 63.8031 31.5537C63.9408 31.6582 64.0115 31.7728 64.0423 31.8305C64.075 31.8918 64.0884 31.9377 64.0922 31.9513L62.1445 32.4801Z" fill="black" mask="url(#path-9-outside-5_22_12)"/>
<g clip-path="url(#clip0_22_12)">
<path d="M85.3953 66.0648L85.3952 66.0648L85.3958 66.0736C85.3958 66.0728 85.3966 66.093 85.3975 66.1503C85.3983 66.2015 85.399 66.2714 85.3996 66.3595C85.4008 66.5355 85.4016 66.7801 85.4019 67.0839C85.4027 67.6913 85.4018 68.5324 85.3997 69.5284C85.3957 71.5202 85.387 74.1299 85.3773 76.7243C85.3676 79.3187 85.3568 81.8976 85.3484 83.828L85.3382 86.1579L85.3354 86.8097L85.3346 86.9814L85.3344 87.0255L85.3344 87.0371L85.3344 87.0407V87.0423C85.3344 87.4301 85.062 87.7845 84.6679 87.8797L84.6558 87.8827L84.6438 87.8862C84.598 87.8997 84.5274 87.9084 84.4456 87.9084C84.217 87.9084 83.8927 87.7627 83.4566 87.4375L77.0481 75.8837L76.8935 75.6051L76.5758 75.6274C76.4127 75.6389 76.3304 75.6499 76.2629 75.6621C76.2506 75.6643 76.2415 75.666 76.2342 75.6674C76.2102 75.672 76.2055 75.6729 76.1734 75.6751C76.046 75.6841 75.7187 75.6896 74.6022 75.6896C69.8216 75.6896 65.2505 77.3781 61.2227 79.9555C60.1782 80.6231 59.0349 81.1427 57.8244 81.5711L57.4912 81.689V82.0424L57.4912 87.1192C57.4912 87.5359 57.1632 87.9083 56.6813 87.9084C56.6812 87.9084 56.6811 87.9084 56.6811 87.9084L55.1369 87.9078H55.1367C54.6935 87.9078 54.3266 87.5735 54.3266 87.1186L54.3266 82.9247L54.3266 82.3892L53.7924 82.4258C53.6088 82.4384 53.4408 82.454 53.2805 82.4689C52.9899 82.496 52.7245 82.5206 52.4366 82.5206C51.0498 82.5206 49.7071 82.2688 48.371 82.0037L47.7737 81.8851L47.7737 82.4941L47.7736 87.1192C47.7736 87.5359 47.4455 87.9084 46.9635 87.9084H45.6533C45.1493 87.9084 44.7651 87.5181 44.7651 87.0441L44.7651 80.7327L44.7651 80.4425L44.5131 80.2985C39.6813 77.5386 36.4357 72.4214 36.4357 66.5509L36.4357 66.5505C36.4305 60.5058 39.1453 56.7393 42.0473 54.436C44.9695 52.1166 48.0853 51.2817 48.8059 51.1539L48.8163 51.152L48.8266 51.1497C53.6519 50.0821 58.2724 51.204 61.7309 53.5306C65.587 56.1473 70.1483 57.5651 74.8259 57.5651L75.6391 57.5651C80.683 57.5651 85.1405 61.2021 85.3953 66.0648ZM82.6201 81.9313L83.5574 83.6227V81.6889V73.2362V72.0239L82.7028 72.8838C81.7909 73.8013 80.6706 74.5095 79.422 74.9768L78.8787 75.1801L79.1599 75.6874L82.6201 81.9313ZM73.612 66.6278C73.612 67.9532 74.6854 69.1001 76.1163 69.1001C77.6331 69.1001 78.6205 67.9408 78.6205 66.6278C78.6205 65.2896 77.4563 64.1555 76.1163 64.1555C74.7762 64.1555 73.612 65.2896 73.612 66.6278Z" fill="#FF6B00" stroke="black"/>
</g>
<defs>
<clipPath id="clip0_22_12">
<rect width="49.9762" height="43.715" fill="white" transform="translate(35.9357 47.4255)"/>
</clipPath>
</defs>
</svg>
